# xmcd
#
# Track frame offsets:
# 150
# 19845
# 33180
# 49345
# 70315
# 85060
# 103895
# 121655
# 133440
# 151795
# 167345
#
# Disc length: 2385 seconds
#
#
# Revision: 2
# Processed by: cddbd v1.5.1PL0 Copyright (c) Steve Scherf et al.
# Submitted via: FreeRIP 2.93 
#
DISCID=89094f0b
DTITLE=Nana Mouskouri - Nana Latina
DYEAR=1900
DGENRE=
TTITLE0=Se Que Volveras
TTITLE1=Madreselva
TTITLE2=La Hiedra
TTITLE3=Yolanda
TTITLE4=El Humahuaque o
TTITLE5=Ojitos Latinos
TTITLE6=Gracias A La Vida
TTITLE7=Credo-Misa Campesina
TTITLE8=Alfonsina Y El Mar
TTITLE9=India
TTITLE10=Cuando Sale La Luna
EXTD=
EXTT0=
EXTT1=
EXTT2=
EXTT3=
EXTT4=
EXTT5=
EXTT6=
EXTT7=
EXTT8=
EXTT9=
EXTT10=
PLAYORDER=
